PathFileType	4	(X/Y/Z)	C:\Users\dbl\Desktop\20210112(1)\20210112\bx_n_10_1802.trc
DataRate	CameraRate	NumFrames	NumMarkers	Units	OrigDataRate	OrigDataStartFrame	OrigNumFrames
50.00	50.00	       7	43	mm	50.00	1	       518
Frame#	Time	Top.Head			R.Acromium			L.Acromium			Sternum			R.ASIS			L.ASIS			V.Sacral			R.Thigh.Upper			R.Thigh.Front			R.Thigh.Rear			R.Knee.Lat			R.Knee.Med			R.Shank.Upper			R.Shank.Front			R.Shank.Rear			R.Ankle.Lat			R.Midfoot.Lat			R.Toe.Lat			R.Toe.Tip			R.Toe.Med			R.Ankle.Med			R.Midfoot.Sup			R.Heel			L.Thigh.Upper			L.Thigh.Front			L.Thigh.Rear			L.Knee.Lat			L.Knee.Med			L.Shank.Upper			L.Shank.Front			L.Shank.Rear			L.Ankle.Lat			L.Midfoot.Lat			L.Toe.Lat			L.Toe.Tip			L.Toe.Med			L.Ankle.Med			L.Midfoot.Sup			L.Heel			origin1 front left			origin2 front right			origin 3 back right			origin 4 back leftt			
		X1	Y1	Z1	X2	Y2	Z2	X3	Y3	Z3	X4	Y4	Z4	X5	Y5	Z5	X6	Y6	Z6	X7	Y7	Z7	X8	Y8	Z8	X9	Y9	Z9	X10	Y10	Z10	X11	Y11	Z11	X12	Y12	Z12	X13	Y13	Z13	X14	Y14	Z14	X15	Y15	Z15	X16	Y16	Z16	X17	Y17	Z17	X18	Y18	Z18	X19	Y19	Z19	X20	Y20	Z20	X21	Y21	Z21	X22	Y22	Z22	X23	Y23	Z23	X24	Y24	Z24	X25	Y25	Z25	X26	Y26	Z26	X27	Y27	Z27	X28	Y28	Z28	X29	Y29	Z29	X30	Y30	Z30	X31	Y31	Z31	X32	Y32	Z32	X33	Y33	Z33	X34	Y34	Z34	X35	Y35	Z35	X36	Y36	Z36	X37	Y37	Z37	X38	Y38	Z38	X39	Y39	Z39	X40	Y40	Z40	X41	Y41	Z41	X42	Y42	Z42	X43	Y43	Z43	

1	0.000	-689.62299	135.77635	1849.67468	-703.51624	-53.73391	1546.00439	-711.82727	300.22382	1536.76770	-596.63190	115.58768	1355.31921	-600.37146	-0.03004	1058.83582	-596.33582	249.75548	1066.39099	-799.04144	111.70479	1050.23840	-662.42578	-65.32740	874.67444	-584.34174	0.41790	808.28174	-682.13855	-52.26467	758.99023	-699.73541	-25.38374	617.01837	-682.43335	82.92028	575.08942	-706.47809	-23.25818	569.69135	-655.66504	25.32409	519.68823	-752.26331	-34.27331	489.95523	-754.95624	-10.24778	207.37379	-649.94757	-65.46732	163.24052	-609.32245	-74.49921	159.11455	-547.70428	-34.07375	164.00229	-594.52618	24.89681	166.37701	-710.47827	76.88860	215.18643	-666.68060	57.22763	155.50221	-787.02185	49.38955	175.16081	-675.17023	291.54233	870.87146	-574.46936	217.26236	817.38940	-683.66980	274.77283	742.89447	-714.38965	254.95264	642.17346	-678.29407	147.52357	578.98883	-719.65192	249.00426	576.06537	-665.14795	207.68633	534.41913	-758.71796	260.06747	502.87488	-766.23920	224.93184	205.88469	-659.91193	297.42651	157.90234	-623.50482	306.03214	158.93434	-555.27441	256.16684	165.48430	-590.27173	218.82625	174.04166	-709.56213	152.28552	216.48573	-672.65894	170.54451	158.01128	-793.49304	175.57217	184.36940	-527.88525	304.47412	146.88312	-517.37585	-72.71810	143.33839	-876.18384	-78.95393	141.52309	-882.61194	296.15863	144.60854	
2	0.020	-689.25000	135.52412	1849.68262	-703.47552	-53.82912	1545.91370	-711.78198	300.07095	1536.81287	-596.67145	115.50749	1355.25061	-600.55084	0.01390	1058.81482	-596.53497	249.71121	1066.42749	-799.19464	111.59883	1050.33142	-662.46771	-65.38134	874.56219	-584.31177	0.39693	808.37622	-682.16809	-52.41869	759.06683	-699.71826	-25.41213	617.02472	-682.40967	82.92493	575.07617	-706.41693	-23.27330	569.64771	-655.64856	25.29449	519.60925	-752.19189	-34.32013	489.94070	-754.99866	-10.31296	207.40579	-650.00714	-65.47597	163.18086	-609.26599	-74.58009	159.16417	-547.74786	-34.10120	164.07144	-594.51337	24.94688	166.20007	-710.67798	76.87643	215.15041	-666.53156	57.28407	155.53484	-786.97119	49.33707	175.14027	-675.39539	291.46490	870.94537	-574.40649	217.38390	817.48480	-683.72009	274.84900	743.05005	-714.42114	254.92345	642.07318	-678.29865	147.55255	578.98859	-718.36475	249.65677	576.38513	-665.15216	207.68259	534.43567	-758.74902	260.03769	502.84253	-766.22284	224.95529	205.89192	-659.93115	297.36203	157.83815	-623.48175	306.06183	158.91792	-555.13770	256.28137	165.47913	-590.30249	218.90169	174.05417	-709.62872	152.22937	216.63156	-672.66663	170.56386	157.99876	-793.54968	175.47746	184.42924	-527.93646	304.47214	146.80261	-517.40149	-72.63944	143.28227	-876.19244	-78.91360	141.55418	-882.55670	296.19009	144.68712	
3	0.040	-688.83978	135.23711	1849.68701	-703.39642	-53.95608	1545.81689	-711.70172	299.92148	1536.84033	-596.72455	115.39875	1355.16821	-600.71869	0.04012	1058.80371	-596.72412	249.64125	1066.44946	-799.32404	111.50593	1050.40442	-662.54156	-65.44375	874.47028	-584.31171	0.35648	808.46265	-682.19354	-52.53403	759.10541	-699.68469	-25.42851	616.98712	-682.33014	82.88105	575.07227	-706.36914	-23.28694	569.61804	-655.64917	25.25798	519.54126	-752.10718	-34.38951	489.90872	-755.03583	-10.35326	207.44153	-650.02527	-65.47628	163.13562	-609.22510	-74.63444	159.20515	-547.77185	-34.11512	164.12181	-594.50525	24.97306	166.09015	-710.79315	76.88004	215.15450	-666.43994	57.33155	155.56798	-786.94940	49.31161	175.12096	-675.63861	291.41315	871.01434	-574.42480	217.43855	817.58014	-683.78070	274.95374	743.23273	-714.45068	254.90208	642.02258	-678.30457	147.56285	578.98492	-717.52832	250.08730	576.60236	-665.15894	207.67278	534.46375	-758.76544	260.02267	502.82504	-766.21191	224.96123	205.90259	-659.93140	297.33096	157.79512	-623.45807	306.08481	158.90002	-555.05505	256.36035	165.47678	-590.31085	218.95027	174.05284	-709.68799	152.19287	216.70624	-672.67657	170.57387	157.99754	-793.58887	175.41824	184.48820	-527.96283	304.45160	146.74921	-517.42755	-72.61667	143.21744	-876.18439	-78.87523	141.55995	-882.52148	296.21469	144.74797	
4	0.060	-688.36780	134.92021	1849.68726	-703.27283	-54.12813	1545.72278	-711.56873	299.76331	1536.84998	-596.78961	115.24029	1355.07593	-600.88275	0.02740	1058.81067	-596.90137	249.54636	1066.46179	-799.42126	111.43271	1050.44421	-662.65082	-65.52885	874.41901	-584.35736	0.29343	808.53931	-682.22644	-52.59784	759.10022	-699.65179	-25.43091	616.91614	-682.21240	82.80091	575.08203	-706.34222	-23.30238	569.58820	-655.67303	25.20808	519.48090	-752.01917	-34.48640	489.86780	-755.06561	-10.35684	207.45596	-650.00183	-65.46899	163.11337	-609.21057	-74.65004	159.22769	-547.77039	-34.11629	164.14906	-594.49536	24.98097	166.06549	-710.81879	76.86987	215.18144	-666.41687	57.37188	155.61275	-786.96332	49.32156	175.10117	-675.86798	291.39859	871.09674	-574.49585	217.44785	817.66315	-683.85083	275.06946	743.42096	-714.48163	254.88635	642.02155	-678.32166	147.54158	578.97333	-717.22638	250.25406	576.69910	-665.16626	207.65483	534.49957	-758.76691	260.01334	502.82346	-766.20032	224.95639	205.91644	-659.90967	297.33447	157.78551	-623.43530	306.10187	158.87735	-555.03558	256.39459	165.48190	-590.29517	218.97017	174.05258	-709.73877	152.18129	216.69545	-672.68103	170.57465	158.00104	-793.58838	175.40723	184.51294	-527.95978	304.40546	146.72275	-517.45593	-72.65589	143.14824	-876.16156	-78.84470	141.53975	-882.50122	296.23035	144.78397	
5	0.080	-687.82123	134.60648	1849.68884	-703.12183	-54.33693	1545.65430	-711.39636	299.57813	1536.85413	-596.85846	115.03798	1354.98145	-601.07581	-0.05222	1058.83191	-597.06006	249.45163	1066.48572	-799.51538	111.36990	1050.45313	-662.78955	-65.62962	874.40503	-584.44403	0.20804	808.60077	-682.27942	-52.62500	759.07550	-699.64465	-25.43047	616.85352	-682.10608	82.73116	575.09979	-706.33752	-23.32936	569.55627	-655.70728	25.15565	519.42780	-751.95563	-34.59846	489.83856	-755.08685	-10.33706	207.42838	-649.96582	-65.46456	163.11597	-609.21564	-74.63780	159.23337	-547.75342	-34.11392	164.15988	-594.47803	24.98806	166.09451	-710.80981	76.80947	215.18079	-666.43011	57.40063	155.67378	-786.99097	49.35033	175.08389	-676.03516	291.39914	871.20282	-574.54956	217.47012	817.70892	-683.92755	275.13757	743.56232	-714.51923	254.85994	642.03253	-678.36462	147.49048	578.95209	-717.24945	250.24619	576.72577	-665.16547	207.63075	534.52649	-758.76654	259.97784	502.82639	-766.18121	224.95781	205.91965	-659.88806	297.34998	157.80141	-623.41803	306.11322	158.85669	-555.05347	256.39163	165.49646	-590.26520	218.97438	174.07138	-709.77631	152.18114	216.63599	-672.67596	170.57613	157.98970	-793.54626	175.42433	184.47690	-527.94360	304.35471	146.71118	-517.48840	-72.72176	143.09557	-876.15076	-78.83187	141.52628	-882.48566	296.23621	144.79216	
6	0.100	-687.19434	134.31001	1849.70544	-702.95361	-54.56351	1545.62769	-711.21332	299.37592	1536.86401	-596.92914	114.81825	1354.88257	-601.33081	-0.21046	1058.84717	-597.18884	249.37096	1066.53064	-799.65833	111.29732	1050.44861	-662.97791	-65.71172	874.39392	-584.55750	0.09827	808.62604	-682.35370	-52.63116	759.05023	-699.66217	-25.44851	616.82770	-682.02991	82.69459	575.11505	-706.34686	-23.36813	569.54565	-655.73322	25.12427	519.39825	-751.94495	-34.69338	489.82922	-755.09796	-10.32540	207.37984	-649.93811	-65.47405	163.14218	-609.21448	-74.62428	159.23904	-547.73877	-34.11372	164.16096	-594.46332	24.99810	166.12868	-710.80493	76.71495	215.13557	-666.43646	57.39428	155.73279	-787.00293	49.36743	175.07980	-676.12561	291.38449	871.31085	-574.56958	217.51991	817.69604	-684.02118	275.10510	743.60876	-714.56281	254.81021	642.02557	-678.42719	147.42232	578.93085	-717.36475	250.14799	576.72345	-665.14630	207.60216	534.53210	-758.77539	259.89606	502.82513	-766.16229	224.96896	205.90417	-659.89038	297.36514	157.81967	-623.41229	306.11194	158.85587	-555.08051	256.36868	165.51823	-590.22803	218.97023	174.09688	-709.78986	152.17169	216.57295	-672.66779	170.58287	157.96315	-793.49402	175.43652	184.40385	-527.93750	304.33063	146.70032	-517.52130	-72.76890	143.07724	-876.17206	-78.84038	141.54530	-882.47827	296.22937	144.77301	
7	0.120	-686.48901	134.01405	1849.74951	-702.76691	-54.79009	1545.63110	-711.03522	299.19745	1536.88477	-597.00507	114.60176	1354.76672	-601.63763	-0.41922	1058.85242	-597.29602	249.28076	1066.58777	-799.87823	111.20455	1050.45032	-663.24622	-65.75829	874.35602	-584.69293	-0.03060	808.60394	-682.45197	-52.60825	759.01801	-699.69122	-25.50009	616.84772	-681.98108	82.67690	575.12299	-706.35767	-23.40617	569.56067	-655.74548	25.12070	519.39716	-751.99768	-34.73102	489.83411	-755.09570	-10.33981	207.34349	-649.92450	-65.49976	163.18001	-609.19135	-74.62302	159.25626	-547.73547	-34.11652	164.15686	-594.46863	24.99988	166.13748	-710.81036	76.64153	215.07684	-666.41901	57.35012	155.77518	-786.99072	49.35707	175.09334	-676.15582	291.35489	871.38458	-574.59222	217.56111	817.62305	-684.14740	274.96109	743.53888	-714.60333	254.74376	642.00092	-678.46637	147.34087	578.92847	-717.44348	250.00960	576.69489	-665.10779	207.56529	534.52313	-758.79059	259.79187	502.82141	-766.16003	224.97543	205.89034	-659.91400	297.38342	157.82529	-623.41901	306.09131	158.88492	-555.09583	256.35669	165.53871	-590.18640	218.96091	174.10193	-709.78314	152.14362	216.53958	-672.66229	170.59193	157.94031	-793.46631	175.43378	184.33768	-527.95251	304.34543	146.68205	-517.54114	-72.76683	143.08974	-876.20935	-78.86076	141.57979	-882.48401	296.20770	144.73579	
